<?xml version="1.0" standalone="no"?><!DOCTYPE svg PUBLIC "-//W3C//DTD SVG 1.1//EN" "http://www.w3.org/Graphics/SVG/1.1/DTD/svg11.dtd"><svg t="1617761052871" class="icon" viewBox="0 0 1024 1024" version="1.1" xmlns="http://www.w3.org/2000/svg" p-id="2398" xmlns:xlink="http://www.w3.org/1999/xlink" width="100" height="100"><defs><style type="text/css"></style></defs><path d="M512 239.52384c-150.24128 0-272.46592 122.23488-272.46592 272.47616 0 150.24128 122.23488 272.46592 272.46592 272.46592S784.46592 662.24128 784.46592 512 662.24128 239.52384 512 239.52384z m0 503.98208c-127.65184 0-231.50592-103.85408-231.50592-231.50592S384.34816 280.48384 512 280.48384c127.66208 0 231.50592 103.85408 231.50592 231.51616S639.66208 743.50592 512 743.50592z" p-id="2399" fill="#d81e06"></path><path d="M512 512m-69.77536 0a69.77536 69.77536 0 1 0 139.55072 0 69.77536 69.77536 0 1 0-139.55072 0Z" p-id="2400" fill="#d81e06"></path><path d="M1024 481.28h-55.08096C953.73312 253.14304 770.84672 70.26688 542.72 55.07072V0h-61.44v55.07072C253.15328 70.26688 70.26688 253.14304 55.07072 481.28H0v61.44h55.07072C70.26688 770.84672 253.15328 953.73312 481.28 968.91904V1024h61.44v-55.08096C770.84672 953.73312 953.73312 770.84672 968.91904 542.72H1024v-61.44zM542.72 907.3152v-48.9472h-61.44v48.9472C287.03744 892.3648 131.6352 736.95232 116.67456 542.72h48.96768v-61.44h-48.96768C131.6352 287.03744 287.03744 131.6352 481.28 116.67456v48.96768h61.44v-48.96768C736.95232 131.6352 892.3648 287.03744 907.3152 481.28h-48.9472v61.44h48.9472C892.3648 736.95232 736.95232 892.3648 542.72 907.3152z" p-id="2401" fill="#d81e06"></path></svg>