<?xml version="1.0" standalone="no"?><!DOCTYPE svg PUBLIC "-//W3C//DTD SVG 1.1//EN" "http://www.w3.org/Graphics/SVG/1.1/DTD/svg11.dtd"><svg t="1617760652850" class="icon" viewBox="0 0 1024 1024" version="1.1" xmlns="http://www.w3.org/2000/svg" p-id="1455" xmlns:xlink="http://www.w3.org/1999/xlink" width="100" height="100"><defs><style type="text/css"></style></defs><path d="M899.9 285.3c0-0.1-0.1-0.2-0.1-0.2-0.1-0.1-0.1-0.3-0.2-0.4C860.7 218.5 805 163 738.7 124.2 670 83.9 591.3 62.6 511.1 62.6c-10.4 0-18.8 8.4-18.8 18.8v0.4c0.2 10.2 8.6 18.4 18.8 18.4 66.8 0 132.6 16.2 191.3 46.9-30 46.9-53.9 97.2-71.5 149.9-36.5-20.3-77.4-31-119.8-31-42.4 0-83.3 10.7-119.8 31-17.6-52.6-41.5-102.9-71.5-149.9 32.4-16.9 66.8-29.5 102.5-37.3 10-2.2 16.4-12 14.4-22 0-0.1 0-0.3-0.1-0.4-2.2-10.1-12.3-16.6-22.4-14.3-45.8 10-89.6 27.1-130.2 50.8-0.1 0-0.2 0.1-0.3 0.1-0.1 0.1-0.2 0.1-0.4 0.2C217 163 161.5 218.5 122.5 284.6 82.2 353.4 60.9 431.9 60.9 512c0 79.8 21.2 158.2 61.4 226.7 0 0.1 0.1 0.1 0.1 0.2 0.1 0.1 0.2 0.3 0.2 0.4 38.9 66.1 94.5 121.6 160.8 160.4 68.8 40.3 147.5 61.6 227.7 61.6 80 0 158.5-21.2 227.1-61.3l0.1-0.1c0.2-0.1 0.3-0.2 0.5-0.3 66.3-38.9 121.9-94.4 160.8-160.6 40.4-68.5 61.8-147 61.8-227 0-79.8-21.3-158.2-61.5-226.7z" fill="#2E0C08" p-id="1456"></path><path d="M422.3 109.8c-35.7 7.8-70.1 20.4-102.5 37.3 30 47 54 97.2 71.5 149.9 36.5-20.3 77.4-31 119.8-31 42.4 0 83.3 10.7 119.8 31 17.6-52.7 41.5-102.9 71.5-149.9-58.7-30.7-124.5-46.9-191.3-46.9-10.3 0-18.6-8.2-18.8-18.4-18.9 0.8-37.4 2.8-55.6 6 2 10-4.4 19.8-14.4 22z" fill="#F6442C" p-id="1457"></path><path d="M735 857.9c-30.5-47.6-54.5-98.8-71.5-152.5 15.4-12.1 29.2-25.9 41.4-41.3 53.9 16.9 105.2 40.9 152.8 71.3-31.8 48.9-73.7 90.8-122.7 122.5z" fill="#B5E166" p-id="1458"></path><path d="M391.3 727c36.5 20.3 77.4 31 119.8 31 42.4 0 83.3-10.7 119.8-31 17.5 52.6 41.5 102.9 71.5 149.9-58.8 30.7-124.5 46.9-191.3 46.9-66.8 0-132.6-16.2-191.3-46.9 30-47 54-97.3 71.5-149.9z" fill="#F6442C" p-id="1459"></path><path d="M317.4 664.1c12.1 15.4 26 29.2 41.4 41.3-17 53.7-41 104.9-71.5 152.5-49-31.7-91-73.5-122.7-122.5 47.7-30.5 99-54.4 152.8-71.3z" fill="#B5E166" p-id="1460"></path><path d="M145.5 321.1c47.1 29.9 97.4 53.8 150.2 71.3-20.4 36.4-31.1 77.3-31.1 119.6s10.7 83.1 31.1 119.6c-52.8 17.5-103.1 41.5-150.2 71.4-30.8-58.6-47-124.2-47-190.9 0.1-66.8 16.2-132.4 47-191z" fill="#D5E6BC" p-id="1461"></path><path d="M630.8 341.2c20.1 14 37.4 31.3 51.4 51.3 0 0.1 0.1 0.1 0.1 0.2 24.6 35.1 37.6 76.4 37.6 119.3 0 43-13 84.3-37.7 119.5-14.1 20-31.4 37.3-51.4 51.3-35.2 24.6-76.6 37.6-119.7 37.6s-84.5-13-119.7-37.6c-20.1-14-37.4-31.3-51.4-51.3-24.7-35.1-37.7-76.4-37.7-119.4 0-42.7 12.8-83.7 37.2-118.7 14.1-20.4 31.6-37.9 52-52.1 35.2-24.6 76.6-37.6 119.7-37.6s84.4 12.9 119.6 37.5z" fill="#FFFFFF" p-id="1462"></path><path d="M493.2 373.3l-25 76.9h-81c-8.2 0-15.4 5.2-17.9 13-2.5 7.7 0.2 16.2 6.8 21l65.5 47.5-25 76.9c-2.5 7.7 0.2 16.2 6.8 21 6.6 4.8 15.5 4.8 22.1 0l65.5-47.5 65.5 47.5c3.3 2.4 7.2 3.6 11.1 3.6 3.9 0 7.8-1.2 11.1-3.6 6.6-4.8 9.4-13.3 6.8-21l-25-76.9 65.5-47.5c6.6-4.8 9.4-13.3 6.8-21-2.5-7.7-9.8-13-17.9-13h-81l-25-76.9c-2.5-7.7-9.8-13-17.9-13-8 0-15.3 5.2-17.8 13z" fill="#2E0C08" p-id="1463"></path><path d="M876.7 702.9c-47-29.9-97.4-53.8-150.2-71.4 20.4-36.4 31.1-77.3 31.1-119.6s-10.7-83.1-31.1-119.6c52.7-17.5 103.1-41.5 150.2-71.4 30.8 58.6 47 124.2 47 190.9 0 66.9-16.2 132.5-47 191.1z" fill="#D5E6BC" p-id="1464"></path><path d="M734.9 166.1c49 31.7 91 73.5 122.7 122.5-47.7 30.5-99 54.4-152.8 71.3-12.1-15.4-26-29.2-41.4-41.3 17.1-53.7 41.1-104.9 71.5-152.5zM287.3 166.1c30.5 47.6 54.5 98.8 71.5 152.5-15.4 12.1-29.2 25.9-41.3 41.3-53.9-16.9-105.2-40.9-152.9-71.3 31.7-48.9 73.7-90.8 122.7-122.5z" fill="#B5E166" p-id="1465"></path><path d="M547.4 509.3c-6.6 4.8-9.4 13.3-6.8 21l11.3 34.8-29.7-21.5c-3.3-2.4-7.2-3.6-11.1-3.6-3.9 0-7.8 1.2-11.1 3.6l-29.7 21.5 11.3-34.8c2.5-7.7-0.2-16.2-6.8-21l-29.7-21.5h36.7c8.2 0 15.4-5.2 17.9-13L511 440l11.3 34.8c2.5 7.7 9.8 13 17.9 13H577l-29.6 21.5z" fill="#FBF048" p-id="1466"></path></svg>