<?xml version="1.0" standalone="no"?><!DOCTYPE svg PUBLIC "-//W3C//DTD SVG 1.1//EN" "http://www.w3.org/Graphics/SVG/1.1/DTD/svg11.dtd"><svg t="1617865428061" class="icon" viewBox="0 0 1024 1024" version="1.1" xmlns="http://www.w3.org/2000/svg" p-id="1379" xmlns:xlink="http://www.w3.org/1999/xlink" width="100" height="100"><defs><style type="text/css"></style></defs><path d="M512.4 516m-258 0a258 258 0 1 0 516 0 258 258 0 1 0-516 0Z" fill="#F8CBD9" p-id="1380"></path><path d="M512.4 274c32.7 0 64.4 6.4 94.2 19 28.8 12.2 54.7 29.6 76.9 51.9 22.2 22.2 39.7 48.1 51.9 76.9 12.6 29.8 19 61.5 19 94.2s-6.4 64.4-19 94.2c-12.2 28.8-29.6 54.7-51.9 76.9-22.2 22.2-48.1 39.7-76.9 51.9-29.8 12.6-61.5 19-94.2 19s-64.4-6.4-94.2-19c-28.8-12.2-54.7-29.6-76.9-51.9-22.2-22.2-39.7-48.1-51.9-76.9-12.6-29.8-19-61.5-19-94.2s6.4-64.4 19-94.2c12.2-28.8 29.6-54.7 51.9-76.9 22.2-22.2 48.1-39.7 76.9-51.9 29.8-12.6 61.5-19 94.2-19m0-16c-142.5 0-258 115.5-258 258s115.5 258 258 258 258-115.5 258-258-115.5-258-258-258z" fill="" p-id="1381"></path><path d="M416.3 429.2m-18 0a18 18 0 1 0 36 0 18 18 0 1 0-36 0Z" fill="" p-id="1382"></path><path d="M608.4 429.2m-18 0a18 18 0 1 0 36 0 18 18 0 1 0-36 0Z" fill="" p-id="1383"></path><path d="M392.4 616.3a120 80 0 1 0 240 0 120 80 0 1 0-240 0Z" fill="#EF94AE" p-id="1384"></path><path d="M512.4 704.3c-33.6 0-65.3-8.8-89.3-24.8-25-16.6-38.7-39.1-38.7-63.2s13.7-46.6 38.7-63.2c24-16 55.7-24.8 89.3-24.8s65.3 8.8 89.3 24.8c25 16.6 38.7 39.1 38.7 63.2s-13.7 46.6-38.7 63.2c-24 16-55.7 24.8-89.3 24.8z m0-160c-30.5 0-59 7.8-80.4 22.1-20.4 13.6-31.6 31.3-31.6 49.9s11.2 36.3 31.6 49.9c21.4 14.2 49.9 22.1 80.4 22.1s59-7.8 80.4-22.1c20.4-13.6 31.6-31.3 31.6-49.9s-11.2-36.3-31.6-49.9c-21.4-14.2-49.9-22.1-80.4-22.1z" fill="" p-id="1385"></path><path d="M480.1 650.3c-12.5 0-22-14.6-22-34s9.5-34 22-34 22 14.6 22 34-9.5 34-22 34z m0-52c-1.5 0.5-6 6.6-6 18s4.5 17.5 6 18c1.5-0.5 6-6.6 6-18s-4.5-17.5-6-18zM544.1 650.3c-12.5 0-22-14.6-22-34s9.5-34 22-34 22 14.6 22 34-9.5 34-22 34z m0-52c-1.5 0.5-6 6.6-6 18s4.5 17.5 6 18c1.5-0.5 6-6.6 6-18s-4.5-17.5-6-18z" fill="" p-id="1386"></path><path d="M739.7 394c32.8-64.5 30.7-173 17.2-182.3-12.9-8.8-84.8 24.2-129.3 73.4 47.7 23.9 86.9 62 112.1 108.9z" fill="#EF94AE" p-id="1387"></path><path d="M750.7 210.3c2.7 0 4.8 0.5 6.2 1.4 13.6 9.3 15.7 117.7-17.2 182.3-25.2-46.9-64.5-85-112.1-108.8 39.6-43.9 101.1-74.9 123.1-74.9m0-16c-28.9 0-94.2 35-135 80.1-3.4 3.7-4.8 8.8-3.8 13.7 20.5 4.3 107.1 62.3 127.8 121.9h0.2c6-0.1 11.4-3.4 14.1-8.7 15.3-30 25.3-73.1 27.7-118.3 1-18.4 0.5-36.1-1.3-50-2.4-18.9-6.8-29.2-14.5-34.5-4.1-2.8-9.2-4.2-15.2-4.2z" fill="" p-id="1388"></path><path d="M397.8 284.8c-44.3-49.3-116.1-82.6-129.1-73.8-13.6 9.2-15.9 117.6 16.7 182.3 25.3-46.8 64.7-84.8 112.4-108.5z" fill="#EF94AE" p-id="1389"></path><path d="M274.9 209.6c22 0 83.4 31.2 122.9 75.2-47.7 23.7-87.1 61.7-112.4 108.5-32.6-64.6-30.3-173.1-16.7-182.3 1.4-0.9 3.5-1.4 6.2-1.4m0-16c-6 0-11 1.4-15.1 4.2-7.8 5.3-12.2 15.6-14.6 34.5-1.8 13.8-2.3 31.6-1.4 49.9 2.2 45.1 12.2 88.3 27.3 118.3 2.7 5.3 8.1 8.7 14.1 8.8h0.2c38.3-61.6 88.3-110.9 128.1-121.5 0.9-4.9-0.5-10-3.8-13.7-40.7-45.3-105.9-80.5-134.8-80.5z" fill="" p-id="1390"></path></svg>