<?xml version="1.0" standalone="no"?><!DOCTYPE svg PUBLIC "-//W3C//DTD SVG 1.1//EN" "http://www.w3.org/Graphics/SVG/1.1/DTD/svg11.dtd"><svg t="1617953156219" class="icon" viewBox="0 0 1024 1024" version="1.1" xmlns="http://www.w3.org/2000/svg" p-id="2216" xmlns:xlink="http://www.w3.org/1999/xlink" width="100" height="100"><defs><style type="text/css"></style></defs><path d="M956.258153 102.763478c-1.602498-18.972097-16.718777-33.983999-35.69906-35.45449-245.245564-19.079544-421.889703 99.614765-531.024286 249.522983-60.316737-19.761066-125.069507-12.719696-184.119391 20.551058-56.879452 32.039717-105.327884 86.024236-136.417973 152.010089-7.122211 15.111163-3.784186 33.087583 8.292873 44.633546 12.07706 11.550057 30.189579 14.077623 44.958958 6.282077 62.190411-32.788777 132.213207-26.615171 174.260859 15.377222L467.734844 726.724433c0.309038 0.331551 0.523933 0.713244 0.847298 1.035586 42.009789 41.964764 48.193629 111.87602 15.386432 173.958984-7.804756 14.770402-5.291516 32.878828 6.244214 44.966121 7.501858 7.855922 17.71957 12.023848 28.108175 12.023848 5.590322 0 11.228739-1.204431 16.520255-3.689019 66.049299-31.058366 120.088052-79.456656 152.164608-136.276756 33.506115-59.353806 40.470737-124.474966 20.247136-185.05674 44.042075-31.610952 83.466993-67.240427 116.585275-105.894795C925.505755 409.124981 970.06153 266.125103 956.258153 102.763478zM195.549721 441.832917c41.322128-41.259706 94.360088-65.905012 149.610436-56.208163-15.216563 26.822902-28.426423 54.078663-39.702234 81.269955C272.395924 449.098391 234.561223 440.446337 195.549721 441.832917zM582.454632 828.592518c1.366114-39.392172-7.458879-77.511351-25.589818-110.74629 28.201296-11.960403 55.491849-25.467021 81.675184-40.294728C648.995117 733.307362 624.206548 786.915303 582.454632 828.592518zM505.637082 654.779867 368.719736 518.009877c68.61882-183.799096 239.044328-380.192022 512.044002-374.880039C889.938702 468.467531 621.320824 609.381911 505.637082 654.779867zM756.591671 267.765463c11.750625 11.754718 18.450211 28.066219 18.450211 44.672432 0 16.60519-6.699586 32.82664-18.450211 44.576241-11.749602 11.750625-28.065196 18.545378-44.670385 18.545378-16.60519 0-32.8205-6.794753-44.570101-18.545378-11.749602-11.750625-18.549471-27.972075-18.549471-44.576241 0-16.606213 6.79987-32.917714 18.549471-44.672432 11.649318-11.750625 27.964912-18.450211 44.570101-18.450211C728.527498 249.315252 744.843092 256.014838 756.591671 267.765463zM209.751165 671.104671c-44.641733 44.600801-46.391587 133.923152-46.291302 151.249773 0.127913 21.275559 17.339924 39.245839 38.615483 39.245839 0.38374 0 0.801249 0 1.25662 0 19.999496 0 105.826234-3.267417 149.471266-46.858214 27.557636-27.53103 33.343409-55.616692 33.343409-74.066903-0.005117-25.856901-11.104919-51.343365-31.270191-71.486124C305.714773 620.088764 245.193375 635.703393 209.751165 671.104671zM297.900807 759.148913c-9.564843 9.55461-31.048133 16.050558-52.977585 19.753903 3.797489-22.115694 10.42135-43.533492 19.730367-52.832276 6.344498-6.335289 12.389168-10.574846 18.942421-10.574846 5.039783 0 10.379395 2.508123 16.382109 8.501628 5.3918 5.386684 8.482185 11.351536 8.482185 16.367783C308.460304 747.176231 302.713416 754.341421 297.900807 759.148913z" p-id="2217" fill="#1296db"></path></svg>